<?xml version="1.0" encoding="utf-8"?>
<!-- Generator: Adobe Illustrator 15.0.2, SVG Export Plug-In . SVG Version: 6.00 Build 0)  -->
<!DOCTYPE svg PUBLIC "-//W3C//DTD SVG 1.1//EN" "http://www.w3.org/Graphics/SVG/1.1/DTD/svg11.dtd">
<svg fill="white" version="1.1" id="Layer_1" xmlns="http://www.w3.org/2000/svg" xmlns:xlink="http://www.w3.org/1999/xlink" x="0px" y="0px"
	 width="1000px" height="1000px" viewBox="0 0 1000 1000" enable-background="new 0 0 1000 1000" xml:space="preserve">
<path d="M934.804,621.165l-13.236-10.752l30.183-37.158c39.149-170.473-20.247-306.466-128.388-416.078
	C630.15-11.025,346.808-1.862,169.292,175.645c-177.507,177.499-177.507,467.299,0,644.823
	C314.2,965.359,533.903,991.936,706.289,900.281l-99.737-99.72C491.3,844.561,356.429,819.94,263.124,726.618
	c-126.797-126.789-126.797-330.353,0-457.158c122.833-112.242,312.14-80.604,412.846-8.244
	c149.077,131.85,91.145,274.572,22.884,405.121l30.608,24.96l57.898-71.222l31.511,25.606l-57.917,71.306l94.088,76.733
	c40.152-63.683,68.056-123.488,85.598-179.735L934.804,621.165z M835.103,421.226l13.236,10.761l-57.95,71.323l-13.203-10.778
	L835.103,421.226z M775.229,610.48l-18.222-14.768l57.949-71.323l18.188,14.802L775.229,610.48z M824.246,768.405l-31.544-25.589
	l57.934-71.322l31.527,25.622L824.246,768.405z M843.949,666.186l-18.205-14.769l57.933-71.306l18.188,14.784L843.949,666.186z
	 M861.779,562.024l-13.254-10.752l57.967-71.332l13.237,10.77L861.779,562.024z"/>
</svg>
