<?xml version="1.0" standalone="no"?>
<!DOCTYPE svg PUBLIC "-//W3C//DTD SVG 20010904//EN"
 "http://www.w3.org/TR/2001/REC-SVG-20010904/DTD/svg10.dtd">
<svg version="1.0" xmlns="http://www.w3.org/2000/svg"
 width="16.000000pt" height="16.000000pt" viewBox="0 0 16.000000 16.000000"
 preserveAspectRatio="xMidYMid meet">
<metadata>
Created by potrace 1.11, written by Peter Selinger 2001-2013
</metadata>
<g transform="translate(0.000000,16.000000) scale(0.002286,-0.002286)"
fill="#000000" stroke="none">
<path d="M3417 6744 c-1 -1 -51 -5 -112 -9 -60 -4 -118 -9 -128 -11 -10 -2
-46 -6 -80 -10 -77 -8 -84 -9 -127 -18 -19 -4 -42 -8 -50 -10 -8 -2 -33 -6
-55 -11 -22 -4 -47 -9 -55 -10 -101 -19 -404 -112 -520 -162 -19 -8 -44 -18
-55 -23 -73 -31 -305 -147 -371 -186 -398 -234 -763 -566 -1022 -930 -333
-470 -530 -1012 -579 -1599 -8 -106 -9 -376 0 -495 6 -86 29 -265 42 -330 2
-14 9 -47 15 -75 6 -27 12 -60 14 -72 8 -41 47 -177 78 -273 161 -497 456
-965 832 -1319 27 -25 58 -55 70 -66 65 -63 314 -252 411 -312 217 -134 408
-227 629 -307 109 -40 343 -107 421 -121 123 -22 215 -37 240 -40 291 -36 541
-37 815 -4 119 14 151 19 180 25 14 3 34 8 45 10 11 2 31 6 45 9 14 4 36 8 50
11 187 37 588 178 700 245 8 5 29 15 46 23 17 8 34 18 37 23 7 11 -675 693
-694 693 -8 0 -42 -10 -74 -21 -124 -44 -285 -82 -447 -103 -103 -14 -457 -15
-543 -2 -299 45 -489 102 -720 215 -171 84 -324 183 -473 306 -102 84 -304
303 -378 410 -11 17 -36 53 -55 80 -154 222 -296 579 -338 850 -6 39 -13 81
-16 94 -7 37 -18 217 -18 291 0 71 11 254 17 286 2 10 7 41 10 68 28 203 105
442 214 664 94 190 262 422 413 572 120 119 327 258 509 342 185 85 466 157
685 176 152 12 538 4 565 -13 3 -2 33 -7 65 -10 230 -27 656 -168 836 -277 25
-15 49 -28 53 -28 4 0 50 -29 104 -64 143 -94 347 -305 456 -471 22 -33 47
-72 57 -86 9 -14 37 -66 62 -115 213 -424 215 -889 6 -1479 -21 -60 -45 -123
-53 -140 -8 -16 -33 -75 -57 -130 -24 -55 -83 -180 -131 -277 -48 -97 -89
-181 -90 -186 -2 -5 38 -42 87 -82 50 -40 97 -79 106 -87 14 -12 22 -6 63 47
26 33 52 65 59 72 7 7 75 91 151 185 76 95 143 173 148 173 13 0 217 -163 215
-171 -3 -8 -28 -40 -229 -287 -93 -113 -168 -208 -167 -211 0 -3 49 -45 109
-94 l109 -87 98 122 c54 67 114 140 133 162 19 23 66 81 104 129 l69 87 46
-37 c115 -93 166 -136 168 -142 3 -6 -71 -102 -150 -195 -23 -27 -48 -58 -56
-70 -8 -12 -18 -23 -21 -26 -15 -12 -172 -211 -169 -214 2 -1 50 -39 106 -84
56 -45 104 -82 106 -82 3 0 25 33 50 72 236 384 423 782 543 1154 5 17 3 16
-13 -2 l-20 -22 -41 32 c-23 17 -41 37 -42 44 0 7 43 65 95 128 53 62 99 124
104 137 14 36 50 225 57 297 3 36 8 68 10 72 16 26 22 417 10 578 -17 214 -88
547 -150 700 -8 19 -29 73 -47 120 -111 284 -310 605 -564 909 -185 222 -387
392 -696 586 -63 39 -349 186 -424 217 -265 111 -583 201 -825 233 -25 4 -58
8 -75 11 -63 9 -98 13 -207 20 -99 6 -327 11 -331 8z m2505 -2754 c16 -15 16
-17 -5 -41 -12 -13 -38 -45 -56 -69 -19 -25 -43 -54 -53 -65 -10 -11 -74 -90
-143 -175 -68 -85 -129 -155 -133 -155 -5 0 -28 15 -50 34 l-41 33 122 152
c67 83 124 153 127 156 3 3 39 46 79 97 l74 92 31 -22 c17 -12 39 -29 48 -37z
m448 -369 c0 -3 16 -17 35 -29 l34 -24 -122 -151 c-67 -84 -124 -154 -127
-157 -3 -3 -39 -47 -80 -97 -41 -51 -76 -93 -78 -93 -3 0 -25 16 -49 36 l-43
36 22 28 c186 230 266 329 283 347 23 25 30 34 69 85 17 22 33 35 42 31 8 -3
14 -8 14 -12z m-540 -396 c0 -1 -64 -81 -142 -177 -79 -96 -159 -195 -178
-219 -66 -82 -89 -104 -97 -93 -5 6 -31 29 -60 51 -59 47 -61 37 31 149 28 33
111 135 185 226 l134 166 63 -50 c35 -27 64 -51 64 -53z m476 -386 c4 -6 -331
-428 -380 -477 l-23 -23 -61 51 -61 51 136 167 c75 92 165 204 202 249 l65 81
59 -46 c32 -25 60 -49 63 -53z"/>
</g>
</svg>
